<?xml version="1.0" encoding="utf-8"?><svg version="1.1" id="Layer_1" xmlns="http://www.w3.org/2000/svg" xmlns:xlink="http://www.w3.org/1999/xlink" x="0px" y="0px" viewBox="0 0 70.29 122.88" style="enable-background:new 0 0 70.29 122.88" xml:space="preserve"><style type="text/css">.st0{fill-rule:evenodd;clip-rule:evenodd;fill:#3498DB;} .st1{fill-rule:evenodd;clip-rule:evenodd;}</style><g><path class="st0" d="M24.07,38.08c-1.41,0-2.8,0.81-3.51,2.04L9.49,59.4c-0.7,1.23-0.7,2.84,0,4.07l11.07,19.29 c0.71,1.23,2.1,2.03,3.51,2.04h22.15c1.41,0,2.8-0.81,3.51-2.04l11.07-19.29c0.7-1.23,0.7-2.84,0-4.07L49.73,40.12 c-0.71-1.23-2.1-2.03-3.51-2.04H24.07L24.07,38.08z M24.27,49.36c0.03,0,0.06,0,0.09,0h3.82c0.17,0,0.33,0.1,0.42,0.25l6.48,11.58 c0.03,0.06,0.05,0.12,0.06,0.19c0.01-0.07,0.03-0.13,0.06-0.19l6.46-11.58c0.09-0.15,0.26-0.25,0.43-0.25h3.82 c0.34,0,0.59,0.43,0.43,0.73l-6.33,11.35l6.33,11.33c0.17,0.3-0.09,0.75-0.43,0.75h-3.82c-0.18,0-0.35-0.11-0.43-0.26l-6.46-11.58 c-0.03-0.06-0.05-0.12-0.06-0.19c-0.01,0.07-0.03,0.13-0.06,0.19L28.6,73.25c-0.08,0.15-0.25,0.26-0.42,0.26h-3.82 c-0.35,0-0.61-0.44-0.43-0.75l6.33-11.33l-6.33-11.35C23.78,49.82,23.97,49.42,24.27,49.36L24.27,49.36L24.27,49.36z"/><path class="st1" d="M13.26,0h43.76C60.67,0,64,1.49,66.4,3.88c2.4,2.4,3.89,5.73,3.89,9.38v96.36c0,3.65-1.49,6.98-3.89,9.38 c-2.39,2.39-5.73,3.88-9.38,3.88H13.26c-3.65,0-6.98-1.49-9.38-3.88C1.49,116.6,0,113.27,0,109.62V13.26 c0-3.65,1.49-6.98,3.89-9.38C6.28,1.49,9.61,0,13.26,0L13.26,0L13.26,0L13.26,0z M67.09,104.67V13.69H3.18v90.96 C25.41,104.66,44.87,104.67,67.09,104.67L67.09,104.67L67.09,104.67z"/></g></svg>