<?xml version="1.0" encoding="utf-8"?><svg version="1.1" id="Layer_1" xmlns="http://www.w3.org/2000/svg" xmlns:xlink="http://www.w3.org/1999/xlink" x="0px" y="0px" viewBox="0 0 137.74 122.89" style="enable-background:new 0 0 137.74 122.89" xml:space="preserve"><style type="text/css">.st0{fill-rule:evenodd;clip-rule:evenodd;fill:#3498DB;}</style><g><path class="st0" d="M39.74,0c-3.72,0.01-7.36,2.13-9.23,5.35L1.38,56.09c-1.84,3.24-1.84,7.47,0,10.71l29.13,50.73 c1.87,3.23,5.51,5.35,9.23,5.35h58.25c3.72-0.01,7.36-2.13,9.23-5.35l29.13-50.73c1.84-3.24,1.84-7.47,0-10.71L107.23,5.35 c-1.87-3.23-5.51-5.35-9.23-5.35H39.74L39.74,0z M40.27,29.68c0.08-0.01,0.16-0.01,0.24,0h10.05c0.45,0.01,0.88,0.27,1.1,0.65 l17.04,30.46c0.09,0.15,0.14,0.32,0.16,0.49c0.02-0.17,0.08-0.34,0.16-0.49l17-30.46c0.23-0.4,0.68-0.66,1.14-0.65h10.05 c0.89,0.01,1.56,1.13,1.14,1.92L81.72,61.44l16.64,29.8c0.46,0.79-0.23,1.97-1.14,1.96H87.17c-0.47,0-0.92-0.28-1.14-0.69 l-17-30.46c-0.09-0.15-0.14-0.32-0.16-0.49c-0.02,0.17-0.08,0.34-0.16,0.49L51.66,92.51c-0.21,0.4-0.65,0.68-1.1,0.69H40.52 c-0.91,0.01-1.6-1.17-1.14-1.96l16.64-29.8L39.38,31.6C38.98,30.88,39.46,29.83,40.27,29.68L40.27,29.68L40.27,29.68z"/></g></svg>